<svg xmlns="http://www.w3.org/2000/svg" width="28.46" height="28.46" viewBox="0 0 28.46 28.46"><path d="M14.23,0A14.23,14.23,0,1,0,28.46,14.23h0a14.845,14.845,0,0,0-.75-4.58A14.164,14.164,0,0,0,14.23,0Zm0,26.51A12.275,12.275,0,1,1,26.51,14.24,12.268,12.268,0,0,1,14.23,26.51Z" transform="translate(0 0)" fill="#ff4848"/><path d="M19.81,9.24H8.65a.875.875,0,0,0-.88.88v8.22a.875.875,0,0,0,.88.88H19.81a.875.875,0,0,0,.88-.88V10.12A.875.875,0,0,0,19.81,9.24Zm0,8.48-2.33-2.33a.438.438,0,1,0-.62.62l2.33,2.33H9.28l2.33-2.33a.438.438,0,0,0-.62-.62L8.66,17.72V12.07l5.29,3.98a.439.439,0,0,0,.27.09.411.411,0,0,0,.26-.09l5.34-3.99v5.66Zm0-6.75-5.6,4.19L8.65,10.97v-.84H19.81Z" transform="translate(0 0)" fill="#ff4848" stroke="#ff4848" stroke-miterlimit="10" stroke-width="0.25"/></svg>