<svg xmlns="http://www.w3.org/2000/svg" width="28.465" height="28.465" viewBox="0 0 28.465 28.465"><path d="M158.66,27.322l-.146,1.959h-1.908v6.562h-2.514V29.281H152.82V27.322h1.271V25.431a2.3,2.3,0,0,1,2.514-2.286,8.414,8.414,0,0,1,2.32.228l-.269,1.925s-2.051-.637-2.051.6v1.421Z" transform="translate(-141.638 -15.254)" fill="#3b589d"/><path d="M134.231,28.465a14.233,14.233,0,1,1,14.234-14.234A14.249,14.249,0,0,1,134.231,28.465Zm0-26.51A12.279,12.279,0,1,0,146.51,14.234,12.294,12.294,0,0,0,134.231,1.956Z" transform="translate(-120)" fill="#3b589d"/></svg>