<svg xmlns="http://www.w3.org/2000/svg" width="28.465" height="28.465" viewBox="0 0 28.465 28.465"><path d="M384.675,31.1v1.959h2.739a2.573,2.573,0,0,1-2.739,2.041,3.062,3.062,0,0,1,0-6.122,2.752,2.752,0,0,1,1.942.76v0l1.417-1.417a4.822,4.822,0,0,0-3.359-1.308,5.024,5.024,0,1,0,0,10.047,4.636,4.636,0,0,0,4.824-4.913,5.881,5.881,0,0,0-.1-1.056l-4.729.007Z" transform="translate(-372.955 -17.814)" fill="#d64631"/><path d="M413.818,35.32h-1.257v1.571H410.99v1.257h1.571v1.571h1.257V38.148h1.571V36.891h-1.571Z" transform="translate(-393.618 -23.287)" fill="#d64631"/><path d="M374.231,0a14.233,14.233,0,1,0,14.234,14.231A14.248,14.248,0,0,0,374.231,0Zm0,26.51a12.277,12.277,0,1,1,12.275-12.279A12.294,12.294,0,0,1,374.231,26.51Z" transform="translate(-360)" fill="#d64631"/></svg>