<svg xmlns="http://www.w3.org/2000/svg" xmlns:xlink="http://www.w3.org/1999/xlink" width="28.465" height="28.465" viewBox="0 0 28.465 28.465"><defs><linearGradient id="a" x1="0.147" y1="0.145" x2="0.853" y2="0.852" gradientUnits="objectBoundingBox"><stop offset="0" stop-color="#ffbd00"/><stop offset="0.4" stop-color="#ca3744"/><stop offset="1" stop-color="#803ddf"/></linearGradient></defs><path d="M500.415,9.959a3.161,3.161,0,0,0-.753-1.155,3.235,3.235,0,0,0-1.155-.753,4.8,4.8,0,0,0-1.584-.3c-.7-.031-.92-.037-2.691-.037s-1.993.007-2.692.037a4.8,4.8,0,0,0-1.584.3A3.2,3.2,0,0,0,488.8,8.8a3.151,3.151,0,0,0-.75,1.155,4.8,4.8,0,0,0-.3,1.584c-.031.7-.041.916-.041,2.688s.007,1.993.041,2.692a4.8,4.8,0,0,0,.3,1.584,3.325,3.325,0,0,0,1.9,1.908,4.8,4.8,0,0,0,1.584.3c.7.031.92.037,2.692.037s1.993-.007,2.691-.037a4.8,4.8,0,0,0,1.584-.3,3.343,3.343,0,0,0,1.908-1.908,4.71,4.71,0,0,0,.3-1.584c.034-.7.041-.916.041-2.688s-.007-1.993-.041-2.692A4.885,4.885,0,0,0,500.415,9.959Zm-.872,6.909a3.709,3.709,0,0,1-.225,1.213,2.173,2.173,0,0,1-1.237,1.24,3.682,3.682,0,0,1-1.209.225c-.688.031-.9.037-2.637.037s-1.949-.007-2.637-.037a3.688,3.688,0,0,1-1.213-.225,2.173,2.173,0,0,1-1.237-1.24,3.687,3.687,0,0,1-.225-1.213c-.031-.688-.038-.9-.038-2.637s.007-1.949.038-2.637a3.687,3.687,0,0,1,.225-1.213,2.039,2.039,0,0,1,.487-.75,2,2,0,0,1,.75-.487,3.6,3.6,0,0,1,1.213-.225c.688-.031.893-.037,2.637-.037s1.949.007,2.637.037a3.553,3.553,0,0,1,1.209.225,2.154,2.154,0,0,1,1.237,1.237,3.577,3.577,0,0,1,.225,1.213c.031.688.037.893.037,2.637S499.573,16.18,499.542,16.868Zm-5.311-5.986a3.349,3.349,0,1,0,3.349,3.349A3.349,3.349,0,0,0,494.231,10.882Zm0,5.526a2.174,2.174,0,1,1,2.174-2.174A2.173,2.173,0,0,1,494.231,16.408Zm4.266-5.659a.784.784,0,1,1-.784-.784A.784.784,0,0,1,498.5,10.749ZM494.231,0a14.233,14.233,0,1,0,14.234,14.231A14.248,14.248,0,0,0,494.231,0Zm0,26.51A12.277,12.277,0,1,1,506.51,14.231,12.291,12.291,0,0,1,494.231,26.51Z" transform="translate(-480)" fill="url(#a)"/></svg>