<svg xmlns="http://www.w3.org/2000/svg" width="28.495" height="28.495" viewBox="0 0 28.495 28.495"><path d="M86.1,97.1a1.208,1.208,0,0,1-.607-.171,1.14,1.14,0,0,1-.547-.974V94.267A7.1,7.1,0,0,1,83.487,88.9,7.18,7.18,0,0,1,89.6,82.806a7.127,7.127,0,0,1,8.017,7.871,7.182,7.182,0,0,1-6.119,6.239,7.109,7.109,0,0,1-3.743-.513l-1.137.573A1.1,1.1,0,0,1,86.1,97.1Zm3.624-13.273a6.1,6.1,0,0,0-3.88,9.94.508.508,0,0,1,.12.325v1.863a.132.132,0,0,0,.188.12L87.5,95.4a.537.537,0,0,1,.444-.009,6.093,6.093,0,0,0,6.863-9.863A6.025,6.025,0,0,0,89.726,83.823Zm-.06-.5Zm-2.222,8.606,1.932-1.47a.345.345,0,0,1,.316.009l2.085,1.256a.332.332,0,0,0,.462-.137l1.889-3.265a.329.329,0,0,0-.462-.427L91.76,89.233a.323.323,0,0,1-.359-.017l-1.564-1.171a.325.325,0,0,0-.479.1l-2.333,3.325A.32.32,0,0,0,87.444,91.926Z" transform="translate(-76.293 -75.674)" fill="#39aae0" stroke="#39aae0" stroke-width="0.4"/><path d="M14.242,0A14.247,14.247,0,1,0,28.495,14.246,14.247,14.247,0,0,0,14.242,0Zm0,26.537A12.289,12.289,0,1,1,26.534,14.248,12.29,12.29,0,0,1,14.242,26.537Z" fill="#39aae0"/></svg>