<svg xmlns="http://www.w3.org/2000/svg" viewBox="0 0 49.64 49.65"><defs><style>.cls-1{fill:#3f5993;}</style></defs><g id="Capa_2" data-name="Capa 2"><g id="Essentials"><path class="cls-1" d="M33.06,34.6H16.58a1.5,1.5,0,1,0,0,3H33.06a1.5,1.5,0,0,0,0-3Z"/><path class="cls-1" d="M33.06,40.16H16.58a1.5,1.5,0,1,0,0,3H33.06a1.5,1.5,0,0,0,0-3Z"/><path class="cls-1" d="M38.88,19.19a1.39,1.39,0,0,1-1.4-1.4V2.8H12.16v15a1.4,1.4,0,1,1-2.79,0V1.4A1.4,1.4,0,0,1,10.77,0H38.88a1.4,1.4,0,0,1,1.39,1.4V17.79A1.39,1.39,0,0,1,38.88,19.19Z"/><path class="cls-1" d="M43.56,40.27H38.88a1.4,1.4,0,1,1,0-2.79h4.68a3.3,3.3,0,0,0,3.29-3.29V22.48a3.3,3.3,0,0,0-3.29-3.29H6.08a3.3,3.3,0,0,0-3.29,3.29V34.19a3.3,3.3,0,0,0,3.29,3.29h4.69a1.4,1.4,0,0,1,0,2.79H6.08A6.08,6.08,0,0,1,0,34.19V22.48A6.09,6.09,0,0,1,6.08,16.4H43.56a6.08,6.08,0,0,1,6.08,6.08V34.19A6.08,6.08,0,0,1,43.56,40.27Z"/><path class="cls-1" d="M38.88,49.65H10.77a1.4,1.4,0,0,1-1.4-1.4V29.51a1.4,1.4,0,0,1,1.4-1.4H38.88a1.4,1.4,0,0,1,1.39,1.4V48.25A1.4,1.4,0,0,1,38.88,49.65Zm-26.72-2.8H37.48V30.91H12.16Z"/></g></g></svg>