<svg xmlns="http://www.w3.org/2000/svg" width="28.469" height="28.465" viewBox="0 0 28.469 28.465"><path d="M276.561,28.051a5.051,5.051,0,0,1-1.577.6,2.48,2.48,0,0,0-4.289,1.7,2.38,2.38,0,0,0,.065.566,7.041,7.041,0,0,1-5.114-2.593,2.48,2.48,0,0,0,.767,3.312,2.5,2.5,0,0,1-1.124-.31v.031a2.482,2.482,0,0,0,1.99,2.433,2.445,2.445,0,0,1-.654.089,2.643,2.643,0,0,1-.467-.044,2.485,2.485,0,0,0,2.317,1.724,4.981,4.981,0,0,1-3.08,1.063,4.861,4.861,0,0,1-.593-.034,7.056,7.056,0,0,0,10.861-5.945c0-.106,0-.215-.007-.32a5.038,5.038,0,0,0,1.237-1.284,4.9,4.9,0,0,1-1.424.388A2.464,2.464,0,0,0,276.561,28.051Z" transform="translate(-256.351 -18.375)" fill="#299df4"/><path d="M254.231,0a14.233,14.233,0,1,0,14.238,14.231A14.248,14.248,0,0,0,254.231,0Zm0,26.51A12.277,12.277,0,1,1,266.51,14.234,12.294,12.294,0,0,1,254.231,26.51Z" transform="translate(-240)" fill="#299df4"/></svg>