<svg xmlns="http://www.w3.org/2000/svg" width="28.465" height="28.469" viewBox="0 0 28.465 28.469"><path d="M14.231.51A14.234,14.234,0,1,0,28.465,14.744,14.249,14.249,0,0,0,14.231.51Zm0,26.51A12.277,12.277,0,1,1,26.51,14.744,12.291,12.291,0,0,1,14.231,27.02Z" transform="translate(0 -0.51)" fill="#38bd4b"/><path d="M25.257,24.976a6.553,6.553,0,0,0-.739,8.385l-.784,2.409,2.409-.784a6.554,6.554,0,1,0-.886-10.01Zm8.507,6.93a.943.943,0,0,1-.446.77,2.172,2.172,0,0,1-1.165.47,3.246,3.246,0,0,1-1.543-.317,8.189,8.189,0,0,1-2.555-1.656A6.823,6.823,0,0,1,26.133,28a2.444,2.444,0,0,1,.542-1.611c.249-.334.511-.32.964-.317.276,0,.337.1.392.225.146.317.569,1.271.606,1.363a.524.524,0,0,1,.01.5,3.294,3.294,0,0,1-.531.685c-.082.1-.082.208.065.405a7.525,7.525,0,0,0,1.186,1.332,6.642,6.642,0,0,0,1.462.862c.177.061.242-.034.242-.034s.511-.61.661-.8c.164-.2.324-.116.324-.116l1.54.739a.41.41,0,0,1,.167.112.287.287,0,0,1,.044.174Z" transform="translate(-15.387 -15.376)" fill="#38bd4b"/></svg>